<?xml version="1.0" encoding="utf-8"?>
<!-- Generator: Adobe Illustrator 22.0.1, SVG Export Plug-In . SVG Version: 6.00 Build 0)  -->
<svg version="1.1" id="レイヤー_1" xmlns="http://www.w3.org/2000/svg" xmlns:xlink="http://www.w3.org/1999/xlink" x="0px"
	 y="0px" viewBox="0 0 792 383.8" style="enable-background:new 0 0 792 383.8;" xml:space="preserve">
<style type="text/css">
	.st0{enable-background:new    ;}
</style>
<g class="st0">
	<path d="M23.4,69.8h37.1V81h-51V1.8h13.9V69.8z"/>
	<path d="M86.1,55.8c0.1,10.6,4.8,17.6,14.1,17.6c5.8,0,9.9-3.3,11.8-10.6l11.6,3.4c-3.5,10.7-11.1,16.2-23.6,16.2
		c-16.7,0-26.5-10.7-26.5-29.1c0-18.3,10.3-29.6,25.4-29.6c14.3,0,25,10.4,25,29.4v2.7H86.1z M111.4,47.3
		c-0.6-9.4-4.6-14.7-12.2-14.7c-7.8,0-12.2,5.7-12.9,14.7H111.4z"/>
	<path d="M157.2,25h12.5v9.4h-12.5v30.7c0,5.6,2.2,8.1,6.9,8.1c2.1,0,4.2-0.1,6.5-0.6l-0.5,9.2c-3.6,0.5-6.6,0.6-10,0.6
		c-10.6,0-15.6-4.6-15.6-14.9v-33h-8.4V25h8.4V9.6l12.6-2.9V25z"/>
</g>
<g class="st0">
	<path d="M199.2,15.6l-7.3,15.9h-6.5l6.5-15.9h-7.2V1.8h14.6V15.6z"/>
</g>
<g class="st0">
	<path d="M244.7,41.5c-1.4-6-5-9-10-9c-5.5,0-8.8,2.7-8.8,6c0,4.4,1.8,6.2,10,8.4l4.7,1.2c12.8,3.4,17.3,8,17.3,17
		c0,10-7.4,17.2-22.6,17.2c-11.8,0-19.8-4.2-23.4-14l11.9-4.2c1.8,6.3,6.3,9.4,11.7,9.4c7.3,0,10.2-3.2,10.2-7.2
		c0-4.6-1.9-5.8-10.8-8.4l-4.7-1.3c-12.1-3.3-16.4-7.7-16.4-17c0-9,7.3-15.9,21-15.9c11.7,0,18.9,5.2,21.9,14.3L244.7,41.5z"/>
	<path d="M365.6,12.9H342v68h-13.9v-68h-23.4V1.8h60.8V12.9z"/>
	<path d="M380.5,55.8c0.1,10.6,4.8,17.6,14.1,17.6c5.8,0,9.9-3.3,11.8-10.6l11.6,3.4c-3.5,10.7-11.1,16.2-23.6,16.2
		c-16.7,0-26.5-10.7-26.5-29.1c0-18.3,10.3-29.6,25.4-29.6c14.3,0,25,10.4,25,29.4v2.7H380.5z M405.8,47.3
		c-0.6-9.4-4.6-14.7-12.2-14.7c-7.8,0-12.2,5.7-12.9,14.7H405.8z"/>
	<path d="M449.1,81h-12.9V0.4h12.9V81z"/>
	<path d="M483.5,81h-12.9V0.4h12.9V81z"/>
	<path d="M537.5,39c2.9-10.1,11-15.4,23.2-15.4c14.5,0,21.7,6.1,21.7,18.6v22.2c0,6.5,0.4,11.8,0.9,16.5h-11.8
		c-0.4-2.4-0.6-4.1-0.9-7.3c-4,5.7-10.5,8.7-17.6,8.7c-10.3,0-17.2-6.4-17.2-16.6c0-9.8,6.1-16.1,18.3-18.5c4.8-0.9,10.3-1.4,16-1.6
		v-3.2c0-7-3-9.9-9.7-9.9c-5.3,0-9.6,3.4-10.7,9.8L537.5,39z M569.9,53.5c-5.4,0.1-9.4,0.8-12.9,1.6c-6,1.4-9.2,4.5-9.2,9.5
		c0,5.3,3.2,8.5,9,8.5c4.9,0,9.8-3.1,13.1-9.2V53.5z"/>
	<path d="M652.6,69.8h37.1V81h-51V1.8h13.9V69.8z"/>
	<path d="M719.4,15h-13.9V1.8h13.9V15z M718.9,81h-12.9V25h12.9V81z"/>
	<path d="M749.5,55.8c0.1,10.6,4.8,17.6,14.1,17.6c5.8,0,9.9-3.3,11.8-10.6l11.6,3.4c-3.5,10.7-11.1,16.2-23.6,16.2
		c-16.7,0-26.5-10.7-26.5-29.1c0-18.3,10.3-29.6,25.4-29.6c14.3,0,25,10.4,25,29.4v2.7H749.5z M774.8,47.3
		c-0.6-9.4-4.6-14.7-12.2-14.7c-7.8,0-12.2,5.7-12.9,14.7H774.8z"/>
</g>
<g class="st0">
	<path d="M23.6,175h12.5v9.4H23.6v30.7c0,5.6,2.2,8.1,6.9,8.1c2.1,0,4.2-0.1,6.5-0.6l-0.5,9.2c-3.6,0.5-6.6,0.6-10,0.6
		c-10.6,0-15.6-4.6-15.6-14.9v-33.1H2.6V175h8.4v-15.4l12.6-2.9V175z"/>
	<path d="M99.3,202.9c0,18.2-10.1,29.5-25.4,29.5s-25.3-11-25.3-29.2c0-18.2,10.2-29.5,25.4-29.5C89.1,173.7,99.3,184.8,99.3,202.9z
		 M61.8,203c0,13,3.9,20.1,12.1,20.1c8.3,0,12.2-7,12.2-20.1c0-12.9-3.9-20-12.1-20C65.8,183,61.8,190.2,61.8,203z"/>
	<path d="M190.9,173.8c-2-8.6-6.7-13-14.1-13c-8.4,0-13.2,4-13.2,10.3c0,6.9,3.1,10.1,14.5,13.3l4.2,1.2
		c18.1,4.9,23.2,11.7,23.2,23.4c0,13.9-9.6,23.5-28.6,23.5c-15.4,0-26.1-6.7-29.9-20.5l13.2-4.2c2,9.2,8.1,14.3,16.4,14.3
		c10.4,0,15.1-4.5,15.1-11.3c0-6.8-2.4-10-15.4-13.7l-4.1-1.2c-16.8-5-22.2-11.6-22.2-23.8c0-11.9,9.4-21.6,26.4-21.6
		c13.9,0,23.7,6.5,27.8,19.7L190.9,173.8z"/>
	<path d="M236.1,183.2c3.8-6.1,9.6-9.5,15.7-9.5c12.2,0,21.3,9.7,21.3,28.9c0,19.2-9.9,29.7-21.9,29.7c-6.7,0-11.4-3.3-14.7-9.2
		v27.5h-12.8V175h12.3V183.2z M236.5,213c2.5,5.9,6.6,9.4,11.3,9.4c6.7,0,12.1-5.9,12.1-19.5c0-13.5-5-19.2-11.4-19.2
		c-4.7,0-9.2,3-12,9.5V213z"/>
	<path d="M300.5,205.8c0.1,10.6,4.8,17.6,14.1,17.6c5.8,0,9.9-3.3,11.8-10.6l11.6,3.4c-3.5,10.7-11.1,16.2-23.6,16.2
		c-16.7,0-26.5-10.7-26.5-29.1c0-18.3,10.3-29.6,25.4-29.6c14.3,0,25,10.4,25,29.4v2.7H300.5z M325.8,197.3
		c-0.6-9.4-4.6-14.7-12.2-14.7c-7.8,0-12.2,5.7-12.9,14.7H325.8z"/>
	<path d="M388.5,194.4c-1.2-7.8-4.7-11.3-9.9-11.3c-8.3,0-12.5,7-12.5,19.9c0,13,4.3,20,12.5,20c6,0,9.5-4,10.7-11.7l11.9,3.3
		c-2.8,11.6-10.9,17.9-23,17.9c-15.9,0-25.4-10.9-25.4-29.2c0-18.3,9.8-29.5,25.4-29.5c12,0,20.2,6.4,22.6,17.9L388.5,194.4z"/>
	<path d="M464.1,231h-12.4v-9.7c-4,6.7-10.7,11.1-18.2,11.1c-9.1,0-16.2-5.5-16.2-16.5V175h13.2v37.2c0,6.3,2.9,9.2,7.9,9.2
		c4.8,0,10.1-4.1,13-9.6V175h12.9V231z"/>
	<path d="M498.5,231h-12.9v-80.6h12.9V231z"/>
	<path d="M518.4,189c2.9-10.1,11-15.4,23.2-15.4c14.5,0,21.7,6.1,21.7,18.6v22.2c0,6.5,0.4,11.8,0.9,16.5h-11.8
		c-0.4-2.4-0.6-4.1-0.9-7.3c-4,5.7-10.5,8.7-17.6,8.7c-10.3,0-17.2-6.4-17.2-16.6c0-9.8,6.1-16.1,18.3-18.5c4.8-0.9,10.3-1.4,16-1.6
		v-3.2c0-7-3-9.9-9.7-9.9c-5.3,0-9.6,3.4-10.7,9.8L518.4,189z M550.8,203.5c-5.4,0.1-9.4,0.8-12.9,1.6c-6,1.4-9.2,4.5-9.2,9.5
		c0,5.3,3.2,8.5,9,8.5c4.9,0,9.8-3.1,13.1-9.2V203.5z"/>
	<path d="M599.7,175h12.5v9.4h-12.5v30.7c0,5.6,2.2,8.1,6.9,8.1c2.1,0,4.2-0.1,6.5-0.6l-0.5,9.2c-3.6,0.5-6.6,0.6-10,0.6
		c-10.6,0-15.6-4.6-15.6-14.9v-33.1h-8.4V175h8.4v-15.4l12.6-2.9V175z"/>
	<path d="M637.3,205.8c0.1,10.6,4.8,17.6,14.1,17.6c5.8,0,9.9-3.3,11.8-10.6l11.6,3.4c-3.5,10.7-11.1,16.2-23.6,16.2
		c-16.7,0-26.5-10.7-26.5-29.1c0-18.3,10.3-29.6,25.4-29.6c14.3,0,25,10.4,25,29.4v2.7H637.3z M662.6,197.3
		c-0.6-9.4-4.6-14.7-12.2-14.7c-7.8,0-12.2,5.7-12.9,14.7H662.6z"/>
</g>
<g class="st0">
	<path d="M72.9,341.4c0,26.1-13.7,41.1-34,41.1c-20.3,0-33.9-14.8-33.9-40.9c0-26.2,13.8-41.1,34-41.1
		C59.4,300.5,72.9,315.2,72.9,341.4z M19.7,341.5c0,20.2,7.8,30.4,19.4,30.4s19.3-10.2,19.3-30.4c0-20.3-7.7-30.4-19.3-30.4
		S19.7,321.2,19.7,341.5z"/>
	<path d="M137.8,381h-12.4v-9.7c-4,6.7-10.7,11.1-18.2,11.1c-9.1,0-16.2-5.5-16.2-16.5V325h13.2v37.2c0,6.3,2.9,9.2,7.9,9.2
		c4.8,0,10.1-4.1,13-9.6V325h12.9V381z"/>
	<path d="M187.9,335.8c-6.7,0-12.3,4.4-15.9,14.2v31h-12.6v-56h12v13.8c4-11,9.8-15,17.3-15L187.9,335.8z"/>
	<path d="M291.7,312.7h-38.3V334h29V345h-29v36h-13.9v-79.2h52.1V312.7z"/>
	<path d="M349.6,381h-12.4v-9.7c-4,6.7-10.7,11.1-18.2,11.1c-9.1,0-16.2-5.5-16.2-16.5V325h13.2v37.2c0,6.3,2.9,9.2,7.9,9.2
		c4.8,0,10.1-4.1,13-9.6V325h12.9V381z"/>
	<path d="M386.4,325h12.5v9.4h-12.5v30.7c0,5.6,2.2,8.1,6.9,8.1c2.1,0,4.2-0.1,6.5-0.6l-0.5,9.2c-3.6,0.5-6.6,0.6-10,0.6
		c-10.6,0-15.6-4.6-15.6-14.9v-33h-8.4V325h8.4v-15.4l12.6-2.9V325z"/>
	<path d="M461.3,381h-12.4v-9.7c-4,6.7-10.7,11.1-18.2,11.1c-9.1,0-16.2-5.5-16.2-16.5V325h13.2v37.2c0,6.3,2.9,9.2,7.9,9.2
		c4.8,0,10.1-4.1,13-9.6V325h12.9V381z"/>
	<path d="M511.4,335.8c-6.7,0-12.3,4.4-15.9,14.2v31h-12.6v-56h12v13.8c4-11,9.8-15,17.3-15L511.4,335.8z"/>
	<path d="M537,355.8c0.1,10.6,4.8,17.6,14.1,17.6c5.8,0,9.9-3.3,11.8-10.6l11.6,3.4c-3.5,10.7-11.1,16.2-23.6,16.2
		c-16.7,0-26.5-10.7-26.5-29.1c0-18.3,10.3-29.6,25.4-29.6c14.3,0,25,10.4,25,29.4v2.7H537z M562.3,347.3
		c-0.6-9.4-4.6-14.7-12.2-14.7c-7.8,0-12.2,5.7-12.9,14.7H562.3z"/>
	<path d="M606.1,381h-14.6v-14.1h14.6V381z"/>
</g>
<text transform="matrix(1 0 0 1 0 782.1306)" style="font-family:'YuGo-Bold-83pv-RKSJ-H'; font-size:102px; letter-spacing:4;">Let</text>
<text transform="matrix(1 0 0 1 177.7 782.1306)" style="font-family:'YuGo-Bold-83pv-RKSJ-H'; font-size:102px; letter-spacing:1;">’</text>
<text transform="matrix(1 0 0 1 208.2 782.1306)" style="font-family:'YuGo-Bold-83pv-RKSJ-H'; font-size:102px; letter-spacing:4;">s Tell a Lie</text>
<text transform="matrix(1 0 0 1 0 932.1306)" style="font-family:'YuGo-Bold-83pv-RKSJ-H'; font-size:102px; letter-spacing:4;">to Speculate</text>
<text transform="matrix(1 0 0 1 0 1082.1306)" style="font-family:'YuGo-Bold-83pv-RKSJ-H'; font-size:102px; letter-spacing:4;">Our Future.</text>
</svg>
